<svg id="Layer_1" data-name="Layer 1" xmlns="http://www.w3.org/2000/svg" viewBox="0 0 1280 1000"><defs><style>.cls-1{fill:#f04a00;}.cls-2{fill:#242122;}</style></defs><rect class="cls-1" x="169.97" y="186.81" width="996.08" height="605.35"/><path class="cls-2" d="M507.57,263.33H461v15.25h40.14v23.5H461v35.8H430.51V238.3h77.06Z"/><path class="cls-2" d="M585.34,337.88H510.51V238.3h30.63v73.57h44.2Z"/><path class="cls-2" d="M621,337.88H590.52V238.3H621Z"/><path class="cls-2" d="M722.69,337.88H703.25l-1-10.21q-10.49,12.45-28.81,12.45-21.12,0-34.27-14.4T626,288.09q0-22.93,14.2-37.55t36.58-14.62a45.75,45.75,0,0,1,29.72,10.28,39.26,39.26,0,0,1,14.61,26.93H691.78q-3.07-11.61-15.52-11.61-19.44,0-19.45,28.11,0,13,5.32,19.72t15.66,6.71q14,0,17.07-11.6H681.71v-21.4h41Z"/><path class="cls-2" d="M819.62,337.88H789.13v-39.3H760.32v39.3H729.69V238.3h30.63v33.43h28.81V238.3h30.49Z"/><path class="cls-2" d="M909.42,263.89h-28v74H851v-74H823.12V238.3h86.3Z"/><path class="cls-2" d="M340.57,349a52.57,52.57,0,0,1,12.17,1.4A42.1,42.1,0,0,1,364.07,355a23,23,0,0,1,8.74,9.16,29.31,29.31,0,0,1,3.28,14.26,27.74,27.74,0,0,1-4,14.69,24.07,24.07,0,0,1-10.7,9.65q6.7,1.68,10.21,8.95A46.35,46.35,0,0,1,376,427.36l1,10.49q.7,8,2.52,10.76H349.24c-.84-1.77-1.44-4.89-1.82-9.37l-.42-5.59a71.66,71.66,0,0,0-1.05-8.11,22.4,22.4,0,0,0-2.3-6.16,9.86,9.86,0,0,0-5-4.47,22.2,22.2,0,0,0-8.53-1.4H317.21v35.1H287V349Zm-23.36,43.5H334q12.44,0,12.44-10.35,0-10.06-14.12-10.07H317.21Z"/><path class="cls-2" d="M465.33,373.23H412.88v12.45h47.56v23.07H412.88V423.3h53.85v25.31H382.81V349h82.52Z"/><path class="cls-2" d="M552.4,440.08Q539.47,451,520.44,451q-22.52,0-36.22-15t-13.71-37.49q0-22.23,14.06-37.13T521,346.51q18.18,0,31.12,11.26a39.38,39.38,0,0,1,14.06,28.05H536.53q-1.26-6.72-5.46-10.35a15.61,15.61,0,0,0-10.63-3.64,15.85,15.85,0,0,0-11.26,4.26,22,22,0,0,0-6.22,10,44.07,44.07,0,0,0-1.68,12.44q0,12.45,5.11,19.58a16.34,16.34,0,0,0,14.05,7.14q13.71,0,16.09-15.95H566.6Q565.34,429.17,552.4,440.08Z"/><path class="cls-2" d="M655.42,360.85q13.7,14.47,13.7,38t-13.77,37.77Q641.56,451,619.05,451q-22.93,0-36.92-14.33t-14-38q0-23.64,14-38t37.2-14.34Q641.71,346.37,655.42,360.85Zm-51,17.27q-5.23,7.28-5.24,20.14,0,13.29,5.17,20.63t14.69,7.35q9.38,0,14.27-7.35t4.89-21.47q0-12.44-5.1-19.51a16.54,16.54,0,0,0-14.2-7.06A16.88,16.88,0,0,0,604.43,378.12Z"/><path class="cls-2" d="M727.73,349a52.5,52.5,0,0,1,12.17,1.4A42.1,42.1,0,0,1,751.23,355a23,23,0,0,1,8.74,9.16,29.31,29.31,0,0,1,3.29,14.26,27.75,27.75,0,0,1-4,14.69,24.07,24.07,0,0,1-10.7,9.65q6.7,1.68,10.21,8.95a46.59,46.59,0,0,1,4.34,15.67l1,10.49q.69,8,2.51,10.76H736.4c-.84-1.77-1.44-4.89-1.82-9.37l-.42-5.59a71.66,71.66,0,0,0-1-8.11,22.08,22.08,0,0,0-2.3-6.16,9.86,9.86,0,0,0-5-4.47,22.2,22.2,0,0,0-8.53-1.4H704.37v35.1H674.16V349Zm-23.36,43.5h16.79q12.44,0,12.44-10.35,0-10.06-14.12-10.07H704.37Z"/><path class="cls-2" d="M814.87,349q23.08,0,36.64,13.22t13.57,36.29q0,24.61-13.08,37.35t-37.69,12.72H770.39V349Zm-14.55,74.41h12q11.05,0,16.72-6.43t5.66-17.91q0-12.45-6.64-18.74t-18.68-6.29h-9.09Z"/><path class="cls-2" d="M953.2,373.23H900.75v12.45h47.56v23.07H900.75V423.3H954.6v25.31H870.68V349H953.2Z"/><path class="cls-2" d="M1014.33,349a52.42,52.42,0,0,1,12.16,1.4,41.84,41.84,0,0,1,11.33,4.55,23,23,0,0,1,8.75,9.16,29.31,29.31,0,0,1,3.28,14.26,27.84,27.84,0,0,1-4,14.69,24.07,24.07,0,0,1-10.7,9.65q6.7,1.68,10.21,8.95a46.58,46.58,0,0,1,4.33,15.67l1,10.49q.7,8,2.52,10.76H1023q-1.26-2.66-1.82-9.37l-.42-5.59a71.66,71.66,0,0,0-1-8.11,22.12,22.12,0,0,0-2.31-6.16,9.84,9.84,0,0,0-5-4.47,22.2,22.2,0,0,0-8.53-1.4H991v35.1H960.76V349ZM991,392.53h16.78q12.45,0,12.45-10.35,0-10.06-14.13-10.07H991Z"/><path class="cls-2" d="M242,459.76q23.09,0,36.65,13.22t13.56,36.29q0,24.63-13.07,37.35t-37.7,12.73H197.48V459.76Zm-14.54,74.41h12q11.06,0,16.72-6.43t5.66-17.91q0-12.43-6.64-18.74t-18.67-6.29h-9.09Z"/><path class="cls-2" d="M382,471.58q13.71,14.48,13.71,38T381.9,547.32q-13.77,14.4-36.29,14.4-23,0-36.93-14.33t-14-38q0-23.62,14-38t37.21-14.34Q368.27,457.1,382,471.58Zm-51,17.27q-5.25,7.27-5.24,20.14,0,13.29,5.17,20.63T345.61,537q9.36,0,14.26-7.35t4.9-21.46q0-12.45-5.11-19.52a16.54,16.54,0,0,0-14.19-7.06A16.89,16.89,0,0,0,331,488.85Z"/><path class="cls-2" d="M529.39,559.35H500.16L475.41,517q-3.5-6-7.56-15a214.88,214.88,0,0,1,1,22.8l.14,34.55H439.46V459.76h30.21l21.54,37.35A170.27,170.27,0,0,1,501,515.85q-.84-11.33-.84-22.94L500,459.76h29.37Z"/><path class="cls-2" d="M621.85,471.58q13.71,14.48,13.7,38t-13.77,37.77q-13.78,14.4-36.3,14.4-22.93,0-36.92-14.33t-14-38q0-23.62,14-38t37.2-14.34Q608.14,457.1,621.85,471.58Zm-51,17.27q-5.25,7.27-5.25,20.14,0,13.29,5.18,20.63T585.48,537q9.38,0,14.27-7.35t4.89-21.46q0-12.45-5.1-19.52a16.55,16.55,0,0,0-14.2-7.06A16.87,16.87,0,0,0,570.87,488.85Z"/><path class="cls-2" d="M722.41,485.36h-28v74H664v-74H636.12v-25.6h86.29Z"/><path class="cls-2" d="M849,471.58q13.71,14.48,13.71,38t-13.78,37.77q-13.78,14.4-36.3,14.4-22.93,0-36.92-14.33t-14-38q0-23.62,14-38t37.2-14.34Q835.29,457.1,849,471.58Zm-51,17.27q-5.25,7.27-5.25,20.14,0,13.29,5.18,20.63T812.63,537q9.38,0,14.27-7.35t4.9-21.46q0-12.45-5.11-19.52a16.55,16.55,0,0,0-14.2-7.06A16.87,16.87,0,0,0,798,488.85Z"/><path class="cls-2" d="M911.24,459.76q43.5,0,43.5,35.39,0,16.5-10.28,25t-27.2,8.47h-19v30.77H867.88V459.76Zm-13,45.6h14.69q12.58,0,12.59-10.49t-13.15-10.63H898.23Z"/><path class="cls-2" d="M1040.9,484H988.45v12.45H1036v23.08H988.45V534h53.85v25.32H958.38V459.76h82.52Z"/><path class="cls-2" d="M1138.53,559.35H1109.3L1084.54,517q-3.49-6-7.55-15a217.59,217.59,0,0,1,1,22.8l.14,34.55H1048.6V459.76h30.21l21.54,37.35a172,172,0,0,1,9.79,18.74q-.84-11.33-.84-22.94l-.14-33.15h29.37Z"/></svg>