<svg id="Layer_1" data-name="Layer 1" xmlns="http://www.w3.org/2000/svg" xmlns:xlink="http://www.w3.org/1999/xlink" viewBox="0 0 1280 1000"><defs><style>.cls-1{fill:#ff69b4;}.cls-2{clip-path:url(#clip-path);}</style><clipPath id="clip-path"><path class="cls-1" d="M588.79,426.92l-3.2-2.4a34.05,34.05,0,1,1-53.11-42.58c5.81-6.78,14-11.05,21.89-15.17l28.54-14.88-1.85-3.55-28.54,14.89c-7.86,4.09-16.77,8.74-23.08,16.11a35.27,35.27,0,0,0-3.89,5.58,59.84,59.84,0,0,0,3.14-20c-.17-15.61-5.42-30.32-11.06-43.89-3.25-7.81-8.16-16.95-17.33-18.27-7.5-1.08-14.05,4-17.23,9.45-3.55,6.12-4.05,13.3-4.09,18.88a103.08,103.08,0,0,0,11,46.53,99.17,99.17,0,0,0,13.49,20.52c2.72,3.16,5.34,4.7,8,4.7a7,7,0,0,0,.8,0c4.44-.53,7.5-5.38,10-10.13A37.81,37.81,0,0,0,553,441.76a36,36,0,0,0,5,.35A39.25,39.25,0,0,0,588.79,426.92Zm-82.33-31.39a95.4,95.4,0,0,1-12.94-19.7A99.11,99.11,0,0,1,483,331.11c0-5.08.47-11.59,3.55-16.89,2.68-4.63,7.39-7.6,11.83-7.6a8.93,8.93,0,0,1,1.37.1c7.18,1,11.36,9,14.21,15.85a170.63,170.63,0,0,1,7.94,22.68,27.1,27.1,0,0,0-9.65-2.5,9.53,9.53,0,0,0-9.39,5.85,31.24,31.24,0,0,0-2.13,13.45c.3,6.26,2,12.26,3.69,18.05l5.23,18.2A12.16,12.16,0,0,1,506.46,395.53ZM519.07,390c-1.62,3.14-3.46,6.35-5.39,7.89L508.25,379c-1.61-5.58-3.26-11.35-3.54-17.14a27.15,27.15,0,0,1,1.83-11.72,5.5,5.5,0,0,1,5.42-3.4,22.89,22.89,0,0,1,11.13,3.75,77.72,77.72,0,0,1,1.6,14.47A53.58,53.58,0,0,1,519.07,390Z"/></clipPath></defs><image width="728" height="926" transform="translate(276 37)" xlink:href="Devil%2011.png"/><image width="728" height="926" transform="translate(276 37)" xlink:href="Devil%2012.png"/><image width="728" height="926" transform="translate(276 37)" xlink:href="Devil%2013.png"/><image width="728" height="926" transform="translate(276 37)" xlink:href="Devil%2014.png"/><path class="cls-1" d="M418.61,429.84c-.23-1.21-.39-2.09-.56-2.71l-.94-3.39-1.92-6.93c-.09-.34-.18-.69-.26-1-.54-2.2-1.28-5.21-4.07-7.25a22.72,22.72,0,0,0-6.88-3c-.82-.25-1.6-.49-2.24-.73a81.13,81.13,0,0,1-13.41-5.93,82.18,82.18,0,0,1-11.11-8.54c-5.14-4.43-10.45-9-17.06-11.8a3.93,3.93,0,0,0-1.56-.32,4,4,0,0,0-3.31,6.25,201.89,201.89,0,0,0,59.62,57.43h0l.08,0a4,4,0,0,0,5-6.16A46.5,46.5,0,0,1,418.61,429.84Zm-60-47.61c10.54,4.45,17.86,14.22,27.67,20.1a85.55,85.55,0,0,0,14.07,6.24c2.51.94,6,1.58,8.16,3.18,1.95,1.43,2.23,3.92,2.84,6.13q1.43,5.16,2.86,10.32c.46,1.7,1.46,9.42,2.83,10.31A197,197,0,0,1,358.6,382.23Z"/><path class="cls-1" d="M507.65,423.89c-5.87-3-11.95-6-18.73-7.13-7.78-1.26-15.24.66-20,5.14-4.37,4.15-6.27,10.19-7.79,15.05l-3.53,11.26,3.81,1.2L465,438.15c1.45-4.65,3.11-9.92,6.73-13.35,3.81-3.63,10-5.16,16.56-4.09,6.17,1,12,3.92,17.57,6.75Z"/><path class="cls-1" d="M541.83,445.14a36.25,36.25,0,0,1-37.28,31.2l-.15,4c.49,0,1,0,1.48,0a40.22,40.22,0,0,0,39.91-34.67Z"/><path class="cls-1" d="M552.38,456c1.17,4.33.81,9.46-1,14.82-1.73,5-4.49,9.64-7.15,14.16l3.44,2c2.77-4.7,5.63-9.55,7.48-14.89,2.13-6.12,2.52-12.07,1.14-17.18Z"/><path class="cls-1" d="M683.65,396.9a20.54,20.54,0,0,0,7.64-1.47c6.47-2.63,11.4-8,15.52-12.75l3.26-3.8-5,.5a21.83,21.83,0,0,1-23.63-25.92l-.22,0c7.8-14,18.71-25.89,28.25-35.43,2.23-2.23,4.48-4.43,6.74-6.63,5-4.93,10.26-10,15.1-15.35,16.58-18.27,29.1-39.69,40.79-61a347.56,347.56,0,0,1-22.76,79.7,55.43,55.43,0,0,0-9.27-25.86l-3.31,2.25A51.46,51.46,0,0,1,745.44,324l-.92,11.46L749.26,325a351.8,351.8,0,0,0,28.4-100.39L779,214l-5.1,9.37c-13.15,24.2-26.76,49.23-45.55,69.95-4.76,5.24-9.93,10.28-14.93,15.17-2.27,2.21-4.54,4.42-6.78,6.67-14,14-30.93,33.09-37.33,56.49-2.36,8.63-1.71,15.3,1.92,19.84C674.29,395.3,679,396.9,683.65,396.9Zm-10.46-24.18a80.2,80.2,0,0,1,4.15-11.55,25.69,25.69,0,0,0,23.49,22.22c-3.21,3.45-6.76,6.59-11.05,8.34-5,2-11.84,1.72-15.41-2.73C671.58,385.52,671.19,380,673.19,372.72Z"/><path class="cls-1" d="M499.44,167.17a260.15,260.15,0,0,0,9.24,40.35c2.59,8.22,6.74,18,15.92,20.79a16.28,16.28,0,0,0,4.79.69,22.44,22.44,0,0,0,12.08-3.84c4.74-3.08,8.36-7.34,11.86-11.46,5.55-6.52,10.92-14.29,8.63-22.39-1.76-6.24-7.39-10.05-12.36-13.41l-.5-.34A154,154,0,0,1,521.89,154a156,156,0,0,1-11.51-14.16,54.71,54.71,0,0,1-2.95-4.91c-2.14-3.86-4.36-7.84-7.37-9.94l-2.66-1.87-.46,3.22c-1.75,12,.28,25.76,2.07,37.87Zm1-36a62.44,62.44,0,0,1,3.49,5.76,57.69,57.69,0,0,0,3.19,5.31,160.94,160.94,0,0,0,11.81,14.52,158.07,158.07,0,0,0,27.91,24.14l.51.35c4.62,3.12,9.39,6.34,10.75,11.17,1.78,6.28-2.71,12.71-7.82,18.72-3.32,3.9-6.75,7.93-11,10.69-4.53,2.94-9.46,3.92-13.53,2.68-7.39-2.24-11-10.88-13.27-18.16a255.59,255.59,0,0,1-9.09-39.73l-.43-2.93C501.43,153.23,499.7,141.59,500.45,131.14Z"/><path class="cls-1" d="M465.78,223.37a72,72,0,0,1,.36,7.38c.13,5.93.24,7.68.82,8.66,2.29,3.94,7,4.27,10.69,4.54.93.06,1.81.12,2.57.24a53.56,53.56,0,0,1,30.34,15.21,2,2,0,0,0,2.53.27,2,2,0,0,0,.75-2.43,70,70,0,0,0-21.09-28.18c-6.1-4.87-15.5-10.37-25.72-9a2,2,0,0,0-1.72,2.25A2.11,2.11,0,0,0,465.78,223.37Zm24.47,8.81a66.11,66.11,0,0,1,15.66,18,58.37,58.37,0,0,0-25.11-10c-.91-.14-1.86-.2-2.87-.27-3-.22-6.17-.44-7.45-2.44a65.88,65.88,0,0,1-.34-6.85c-.06-3.2-.13-5.34-.27-6.81C477.87,223.69,485.25,228.19,490.25,232.18Z"/><path class="cls-1" d="M405.16,285.47a22.87,22.87,0,0,0-5.55-12.8,2,2,0,0,0-2.63-.23c-5.26,3.85-8.58,12.88-11,19.48l-.87,2.35a113.63,113.63,0,0,0-6.26,24.23,2,2,0,0,0,2,2.28,2,2,0,0,0,1.62-.83l15.71-21.85C403.27,296.24,405.59,290.32,405.16,285.47Zm-8.77,9a2,2,0,0,0-1.09.75l-10.88,15.14a110.26,110.26,0,0,1,4.43-14.69c.28-.73.57-1.54.88-2.38,1.88-5.12,4.62-12.56,8.19-16.36a19.45,19.45,0,0,1,3.26,8.88C401.49,289.33,399.78,293.53,396.39,294.48Z"/><path class="cls-1" d="M588.79,426.92l-3.2-2.4a34.05,34.05,0,1,1-53.11-42.58c5.81-6.78,14-11.05,21.89-15.17l28.54-14.88-1.85-3.55-28.54,14.89c-7.86,4.09-16.77,8.74-23.08,16.11a35.27,35.27,0,0,0-3.89,5.58,59.84,59.84,0,0,0,3.14-20c-.17-15.61-5.42-30.32-11.06-43.89-3.25-7.81-8.16-16.95-17.33-18.27-7.5-1.08-14.05,4-17.23,9.45-3.55,6.12-4.05,13.3-4.09,18.88a103.08,103.08,0,0,0,11,46.53,99.17,99.17,0,0,0,13.49,20.52c2.72,3.16,5.34,4.7,8,4.7a7,7,0,0,0,.8,0c4.44-.53,7.5-5.38,10-10.13A37.81,37.81,0,0,0,553,441.76a36,36,0,0,0,5,.35A39.25,39.25,0,0,0,588.79,426.92Zm-82.33-31.39a95.4,95.4,0,0,1-12.94-19.7A99.11,99.11,0,0,1,483,331.11c0-5.08.47-11.59,3.55-16.89,2.68-4.63,7.39-7.6,11.83-7.6a8.93,8.93,0,0,1,1.37.1c7.18,1,11.36,9,14.21,15.85a170.63,170.63,0,0,1,7.94,22.68,27.1,27.1,0,0,0-9.65-2.5,9.53,9.53,0,0,0-9.39,5.85,31.24,31.24,0,0,0-2.13,13.45c.3,6.26,2,12.26,3.69,18.05l5.23,18.2A12.16,12.16,0,0,1,506.46,395.53ZM519.07,390c-1.62,3.14-3.46,6.35-5.39,7.89L508.25,379c-1.61-5.58-3.26-11.35-3.54-17.14a27.15,27.15,0,0,1,1.83-11.72,5.5,5.5,0,0,1,5.42-3.4,22.89,22.89,0,0,1,11.13,3.75,77.72,77.72,0,0,1,1.6,14.47A53.58,53.58,0,0,1,519.07,390Z"/><g class="cls-2"><path class="cls-1" d="M508,348.29a12.22,12.22,0,0,0-3.37,8c-.07.89,0,1.78.05,2.67a9.36,9.36,0,0,0,2.63,6.37,9,9,0,0,0,12.73,0,9.26,9.26,0,0,0,2.64-6.37,23.59,23.59,0,0,1,0-2.79l-.32,2.4a4.47,4.47,0,0,1,.23-.87l-.91,2.15a2.22,2.22,0,0,1,.21-.37l-1.41,1.82a1.81,1.81,0,0,1,.29-.33,9.3,9.3,0,0,0,2.64-6.36,9,9,0,0,0-9-9,9.31,9.31,0,0,0-6.37,2.63Z"/></g><path class="cls-1" d="M523.75,376.17a1.37,1.37,0,0,0,.63-.58,1.59,1.59,0,0,0,.16-1.15,2.82,2.82,0,0,0-.36-.83,9.71,9.71,0,0,0,1.11-3.58,12.61,12.61,0,0,0,1-2.89,10.41,10.41,0,0,0-.55-6c2.87-5,.82-12.92-6.15-13.79a8.36,8.36,0,0,0-5.18-1.69,11.86,11.86,0,0,0-1.6.18,9.49,9.49,0,0,0-8.7,4.5,8.84,8.84,0,0,0,.66,9.78,10.13,10.13,0,0,0,.38,9.07,10.18,10.18,0,0,0,.72,7.2c.1,1.62.22,3.25.22,4.86a8.18,8.18,0,0,0,4.8,7.78,3.17,3.17,0,0,0,.12,1.77c.11.31.22.63.31.95l.06.24a6.13,6.13,0,0,0-1.06,5c.32,2.08,3,3.41,4.92,2.8a3.9,3.9,0,0,0,2.82-3.33,5.91,5.91,0,0,0,1.23-2.37,6.74,6.74,0,0,0,.18-1.73,1.46,1.46,0,0,0,.81-.41,1.68,1.68,0,0,0,.44-1.06,12.82,12.82,0,0,0-.18-2.55,8.17,8.17,0,0,0,3.55-7.09C524.06,379.6,523.88,377.88,523.75,376.17Zm-5.68,19.55c0-.12,0-.24,0-.36l0,0A1.7,1.7,0,0,1,518.07,395.72Z"/><path class="cls-1" d="M460,405.23a71.28,71.28,0,0,0-7-19.5c-6.33-12-15.28-22.33-23.94-32.31-2.57-3-5.49-6.33-9.25-8.57-4.42-2.64-9.41-3.17-13.34-1.43-5.91,2.63-8.15,9.59-7.74,15,.44,5.65,3.14,10.74,5.52,15.23,5.85,11.06,11.91,22.5,20.34,32.23a67.87,67.87,0,0,0,15.45,13.39l.42.26c5.26,3.28,11,6.43,15,6.43a5.55,5.55,0,0,0,2.62-.58c4.66-2.47,3.62-11.34,2-19.69Zm-14.58-24.49q1.6,2.49,3,5.07C447.49,384.13,446.46,382.45,445.46,380.74Zm-17.83,22.48c-8.13-9.38-14.09-20.62-19.84-31.48-2.2-4.15-4.69-8.85-5.06-13.67-.31-4,1.24-9.16,5.37-11,2.75-1.22,6.36-.77,9.67,1.21s5.79,4.88,8.28,7.76c5.1,5.86,10.29,11.86,14.95,18.21-3.67-.11-8.6.55-11.75,4.26-1.68,2-3.38,6.05-1.91,14.14a46.89,46.89,0,0,0,7.43,17.72A69,69,0,0,1,427.63,403.22Z"/><path class="cls-1" d="M964.56,411.66a8.85,8.85,0,0,0-5.78-3.88c-5.17-.78-9.71,2.43-13.55,5.51-38.75,31-78,62.67-115.91,93.32-37,29.9-75.22,60.79-113,91-7.82-55.26-44.2-106.22-93.9-131.61A88.39,88.39,0,0,0,652,437.3a31.41,31.41,0,0,0,10.32,4.3,33.61,33.61,0,0,0,7.09.72,54.78,54.78,0,0,0,11-1.26c12-2.48,29-8,41.45-20.33,10.07-10,20.48-20.29,29.76-31.37,21.59-25.77,33.42-59.87,43-92.88a353.52,353.52,0,0,0,11.55-57.11c.78-6.68-.26-12.89-1.35-19.46l-13.29-79.67L789.29,150a165.37,165.37,0,0,1-17.46,44.53,167.41,167.41,0,0,1-42.74,48.94,85.11,85.11,0,0,0,13.06-30.14c3.66-18,.24-36.94-10.16-56.39-8.3-15.53-19-27.31-23.56-32.34-42.81-47.17-105.7-51.38-130.72-51a211.59,211.59,0,0,0-84.37,19.1,253.32,253.32,0,0,0-48.42,29.11A249.93,249.93,0,0,0,369.05,216a13.14,13.14,0,0,1-3.27-.57,61.11,61.11,0,0,1-11.32-5.3,115.25,115.25,0,0,1-20.93-15.84c-2.88-2.65-5.88-5.6-9.45-9.27-.46-.48-1.21-1.13-2.16-2-1.48-1.3-5.41-4.75-5.76-5.85l-4,.51a169.26,169.26,0,0,0,36.3,85.08,48.68,48.68,0,0,0,4.8,5.24c1.53,1.43,1.53,1.43,1.7,4v.12c.33,5.09.88,10.27,1.63,15.41a196.62,196.62,0,0,0,6.89,30.18c5.44,17.35,13.69,35.14,25.1,54.06-8.33-.59-17.1-3.45-26.11-8.54s-17-11.57-24.9-17.92l-4.9-3.95,1.72,6A429.9,429.9,0,0,0,349,390.13c4.4,10.94,10.59,25.18,19.42,38.23s19.23,23.28,30.76,30.15a79.65,79.65,0,0,0,29.07,10.32,44.56,44.56,0,0,0,18.88,25.44,51.63,51.63,0,0,0,8.15,4.29c-.28,5.12-5.28,9.65-10.37,11.15s-10.19,1.16-15.72.83c-1.45-.09-2.89-.18-4.32-.23a92.77,92.77,0,0,0-61.14,165.35,15.43,15.43,0,0,0-3.12,9h0c-.07,6,9.31,15.14,11,16a24.78,24.78,0,0,0,10.51,2.73,15.87,15.87,0,0,0,2-.12,15.61,15.61,0,0,0,1.79-.32,17.21,17.21,0,0,0,11.61,11,15,15,0,0,0,3.81.48,15.77,15.77,0,0,0,7.39-1.87c2.89,2.86,6.18,5.83,10.27,7.49a16.58,16.58,0,0,0,6.11,1.18,12,12,0,0,0,9-3.59,11,11,0,0,0,2.56-4.81l9.25,1.09c17.84,2.11,33.25,3.93,49.14,5.86a90.46,90.46,0,0,0,11.26.88,46,46,0,0,0,13.87-2.06c11.1-3.45,20.73-10.86,28.66-22,6-4.95,9.1-11.75,11.13-16.23l.31-.68a53.5,53.5,0,0,0,3.91-12.51l22.47,28L509.87,755c-.49-11.36-8.73-22.56-20.64-27.3-11-4.37-24.74-3.71-38.66,1.86-27.6,11-47,35.69-63.91,60.69l-5,7.48c-9.86,14.76-19.95,29.85-32.15,42.59l-19.21,16.43A2,2,0,0,0,332.7,860a121.4,121.4,0,0,0,19.58-16.72l55.06-47c14.45-12.36,29.41-25.14,45-36.48,6.95-5.05,13.87-9.47,22-8a10.57,10.57,0,0,1,8.2,6.52c2.41,6.56-3.18,12.73-9,17.9L356.78,880.67a2,2,0,0,0,2.46,3.14L490,795c5.42-3.67,10.33-6.51,15.53-3.91a11.1,11.1,0,0,1,5.85,9.12c.72,9.09-5.31,16-11.55,22.4a286.36,286.36,0,0,1-94.77,63.72c-5.8,2.37-9.85,7.41-13.76,12.28a70.77,70.77,0,0,1-5.87,6.72,1.91,1.91,0,0,0-.31.38l-11,17.64a2,2,0,0,0,.47,2.65,2,2,0,0,0,1.22.41,2,2,0,0,0,1.46-.62,156,156,0,0,1,33.13-26.55c15-9,31.8-15.56,48.05-21.93,23.17-9.08,47.13-18.47,66.33-35,9.55-8.22,18.72-17.76,21.07-31.86,1.71-10.2.38-27.64-10.28-33.85a23.18,23.18,0,0,0-9.21-2.63c-1.45-.19-3.64-.47-3.8-1-.35-1.15,1.57-3.64,5.71-7.41a27.89,27.89,0,0,1,4.56-3.35c.89-.56,1.91-1.2,3.14-2.06a64.94,64.94,0,0,0,9.26-7.89l1-1c4.61-4.47,16.4-13.48,27.81-22.19,3.17-2.42,6.4-4.88,9.52-7.29a145.25,145.25,0,0,0,6.69,28.71,34.38,34.38,0,0,0,7.44,12.19l.63.71c.25.3.51.59.77.88a18.57,18.57,0,0,1,3,4c.58,1.23.94,3.09,0,4.33-1,1.42-3.45,1.52-5.3.89a21.67,21.67,0,0,1-4.19-2.2c-.9-.55-1.83-1.12-2.81-1.63a21.72,21.72,0,0,0-30.06,11.15c-2.5,6.16-1.69,13,2.06,17.54a18.25,18.25,0,0,0,8.86,5.54c7.63,2.49,14.85.37,17.23-.33,1.21-.36,2.42-.7,3.64-1,2.4-.66,4.88-1.35,7.3-2.19a6.49,6.49,0,0,1,2.35-.48h0c1.92,0,3.78,1.63,5.59,3.21l.28.24c7.37,6.43,15.32,10.1,23,10.62.45,0,.89,0,1.35,0,7.89,0,16.4-4.52,21.09-11.34a17.23,17.23,0,0,0,1.94-3.63c.21,1,.41,1.94.62,2.9.47,2.18.93,4.35,1.37,6.53l1.3,6.4a55.16,55.16,0,0,0,2,7.83,29.38,29.38,0,0,0,8.68,12.55,27,27,0,0,0,13.81,6.22,25.31,25.31,0,0,0,3,.19,22.38,22.38,0,0,0,11.94-3.38,11.55,11.55,0,0,0,4-3.91,18.91,18.91,0,0,0,5.49.84,14.3,14.3,0,0,0,7.59-2.06c1.31-.8,5.32-3.26,6.11-8.28a10.76,10.76,0,0,0-.32-4.7l.43,0a11,11,0,0,0,6.86-2.47,14.33,14.33,0,0,0,4.82-8.29,15.22,15.22,0,0,0-3.93-14,12.51,12.51,0,0,0-8.55-3.48l.1-.09a23.21,23.21,0,0,0,2.5-2.56,149.82,149.82,0,0,0,22-39,62.58,62.58,0,0,0,35.14,11c1,0,1.93,0,2.9-.07a62.42,62.42,0,0,0,38.47-16.11c9.32-8.56,16.47-20.31,21.86-35.9,8.17-23.64,9.77-50.52,4.58-76.11a242.38,242.38,0,0,1,25.32,13.43,2,2,0,0,0,2.46-.3,2,2,0,0,0,.29-2.46,394.47,394.47,0,0,0-67.24-82.75,2,2,0,0,0-3.36,1.63A259.5,259.5,0,0,1,805,590c-.18,7.9,0,15.68.23,23.2.21,8,.44,16.34.18,24.72l-1.13,36.81a2,2,0,0,0,3.74,1l23-40.93c.42,11.1.59,22.28.49,33.33-.07,7.79-.31,15.37-2.43,22.39-1.88,6.21-5.27,12-8.65,17.42s-7.59,11.59-13.41,15.19c-7.49,4.65-18.1,5.11-28.37,1.24-8.81-3.32-16.24-8.89-24.88-15.82.05-.91.09-1.83.11-2.76,8.64-6,14.1-17,14-28.61-.07-10.46-4.38-21.53-12.14-31.15-7.17-8.88-16.33-15.61-23.86-20.61a16.15,16.15,0,0,0,.75-5.58,16.4,16.4,0,0,0-.49-3.43,73.41,73.41,0,0,1,6.55-6.28c1.63-1.37,2.8-2.24,4.29-3.35,1-.76,2.18-1.62,3.67-2.79,2.72-2.11,4.28-3.47,5.93-4.91.81-.7,1.63-1.41,2.61-2.24a71.94,71.94,0,0,1,7.68-5.72c2-1.34,4.31-2.86,8.3-5.92a86.53,86.53,0,0,0,7.14-6c1.84-1.7,3.75-3.45,7.78-6.6,2.58-2,4-3,5.52-4.1,1.35-1,2.74-1.95,5-3.68,6.69-5.1,11.29-9.22,15.73-13.21l.22-.19c7.45-6.68,13.9-11.21,22.84-17.47,2.71-1.89,5.63-3.94,8.86-6.24,2.73-2,3.16-2.28,10.28-7.78,5.63-4.35,15.48-11.95,34-26.2,5.7-4.38,11.25-9.15,16.61-13.77,10-8.57,20.26-17.44,31.76-23.91,5.83-3.28,11.9-8.94,24-20.23,2-1.84,5.65-5.26,6.58-10.69A19,19,0,0,0,964.56,411.66ZM357.75,267a13.21,13.21,0,0,0-1.73-1.87,46.93,46.93,0,0,1-4.41-4.82,165.37,165.37,0,0,1-34.4-76.07c.65.59,1.34,1.2,2.08,1.84s1.57,1.38,1.92,1.75c3.63,3.72,6.68,6.72,9.6,9.42a119,119,0,0,0,21.67,16.37,64.28,64.28,0,0,0,12.09,5.65,21.47,21.47,0,0,0,6.34.84,23.37,23.37,0,0,1,4,.32c6.95,1.31,12,8.79,13,15.25,1.08,7.58-1.52,16.05-7.73,25.18-4,5.92-8,9-12.12,9.52-3.27.38-6.58-.79-10.11-3.6ZM427.08,461.9c.07.92.19,1.84.33,2.75a75.83,75.83,0,0,1-26.14-9.58c-11-6.57-20.94-16.31-29.5-28.95s-14.69-26.72-19-37.48c-4.76-11.81-9-24-12.69-36.19a159.07,159.07,0,0,0,20.49,14.32c10.44,5.89,20.65,9,30.35,9.17v-.37c1.48,2.39,3,4.8,4.58,7.23,3.17,4.87,6.7,9.31,10.11,13.6a155.15,155.15,0,0,1,11,15.07c7,11.42,10.65,22.64,10.79,33.33,0,2.29-.1,4.66-.23,6.95A74.57,74.57,0,0,0,427.08,461.9ZM459.19,500a71.57,71.57,0,0,0,19.28,3.55c-6.81,5.2-10.39,10.13-10.88,15l0,.32c-.24,2.72-.77,3.36-1.06,3.5s-1,.08-2.74-1c-4.84-2.89-9.79-5.92-14.73-9C454.07,510,458.35,505.4,459.19,500Zm-34.43,14.28c1.4.05,2.81.13,4.23.22,5.05.3,10.25.6,15.33-.54l.35.35.34.27c5.59,3.52,11.21,7,16.7,10.24a9.2,9.2,0,0,0,4.53,1.58,4.48,4.48,0,0,0,2-.44c2.84-1.35,3.18-5.14,3.32-6.75l0-.28c.46-4.51,5.09-9.66,13.77-15.3,11.47-.28,22.75-2.4,33.72-4.49A141,141,0,0,1,544,496.59c-7.67,16.54-14.71,33.81-18.46,51.52l-6-11.82c-4.06-8-2.7-17.14,3.51-23.14a15.17,15.17,0,0,1,1.85-1.57,10.39,10.39,0,0,0,1.56-1.35c1.32-1.41,1.6-2.77.88-4.26-1.14-2.36-3.74-3-7.17-1.75l-22,8.09-22.68,8.34c-3.66,1.35-5,3.5-3.65,5.89.85,1.52,2.3,2.28,4.57,2.39a14.15,14.15,0,0,0,2.37-.1,21.88,21.88,0,0,1,2.76-.13A27.43,27.43,0,0,1,497,533.6l-2,.75-11.36,4.34L480.16,540l-2.15.82-1.45.55-.64.25-.33.12-.32.16c-2.56,1.48-2.95,7.15-.06,11.24a5.83,5.83,0,0,0,1.43,1.62c3.4,2.33,8.69-1.78,10.94,2.22.85,1.53,3.29,36.46,2.12,42.76-7-4.09-14.48-8.82-22.46-14.29-6.4-4.39-12.47-8.82-18.2-13.22a3,3,0,0,1-1.59-1.21c-.71-1.28.81-2.29.57-4.58a8,8,0,0,0-.7-2.19c-1.05-2.29-4-4.84-8-6.91a4.66,4.66,0,0,0-3.69-.34l-23,8.67a17.93,17.93,0,0,1,5.81-13.37,16.81,16.81,0,0,1,2.06-1.7,11.91,11.91,0,0,0,1.74-1.48c1.44-1.52,1.65-2.95.68-4.48-1.53-2.42-4.67-3-8.62-1.53l-25.4,9.35-26.26,9.65a13.68,13.68,0,0,0-2.09,1,156.54,156.54,0,0,1,12.27-34.23A90,90,0,0,1,424.76,514.31Zm-41.06,185c-3,.35-6.23-.36-10.23-2.23-1.48-1-8.87-8.64-8.82-12.32a11.41,11.41,0,0,1,4-8.48,15,15,0,0,1,9.95-3.08c6.73.16,14.44,4.66,15.69,11.92a12.2,12.2,0,0,1-10.6,14.19ZM398.57,710a13.33,13.33,0,0,1-8.88-8.51,16.28,16.28,0,0,0,5.56-4.66,16.47,16.47,0,0,0,3.13-8.29l2.59.83c3.07,1,6.56,2.1,8.78,4.44a9.93,9.93,0,0,1,.69,12A11.37,11.37,0,0,1,398.57,710Zm32.61,4.82c-2.68,2.87-7.4,2.75-10.64,1.44s-6-3.68-8.51-6.18a13.44,13.44,0,0,0,1.68-1.93,13.82,13.82,0,0,0,2.41-8.66,20.23,20.23,0,0,1,8.46.45,12.15,12.15,0,0,1,7.65,6.11A8.17,8.17,0,0,1,431.18,714.86Zm87.82-.12c-9,2.79-16.35,1.89-23.52,1-15.84-1.92-31.26-3.74-49.1-5.85L437,708.8a12.63,12.63,0,0,0-1.15-4.42,16,16,0,0,0-10.14-8.24,24.4,24.4,0,0,0-10.36-.54,12.51,12.51,0,0,0-2.7-4.51c-2.93-3.08-7.11-4.42-10.46-5.49l-4-1.26c-1.64-9.24-11.19-15-19.51-15.16a18.86,18.86,0,0,0-12.1,3.63,88.77,88.77,0,0,1-9.1-131.35,85.76,85.76,0,0,1,8.72-7.89c-16,36.23-17,72.51-2.29,96.06,6.38,10.24,20.62,26.61,39.78,39,4.78,3.11,9.88,6.12,15.59,9.19a178.57,178.57,0,0,0,63.17,20L515.81,702a103.12,103.12,0,0,0,12.66,1,38,38,0,0,0,11.18-1.51A48,48,0,0,1,519,714.74ZM556.64,678l-.32.69c-1.86,4.11-4.7,10.37-10,14.78l-.1-.07-.27.38a22,22,0,0,1-4.76,2.92c-7.73,3.45-16.83,2.33-24.86,1.34L483,693.89a174.36,174.36,0,0,1-61.76-19.54c-5.61-3-10.62-6-15.32-9-18.6-12.08-32.4-27.93-38.56-37.82-9.4-15.1-12-35.83-7.95-58.45,1.14,1.12,2.78,1.66,5.09,1.68a19.5,19.5,0,0,0,2.81-.2,30.41,30.41,0,0,1,3.27-.26c11.66-.34,22.83,4.81,28.53,13l26.6,38.06,18.91,27c4.67,6.68,3.7,14.81-2.4,20.84a17.9,17.9,0,0,1-1.84,1.61l-.42.33h0c-1.4,1.21-2.59,2.51-2.22,3.92a.26.26,0,0,0,0,.08,1,1,0,0,0,.12.32.31.31,0,0,0,0,.1,3.26,3.26,0,0,0,.24.4c1.33,1.8,4.06,1.91,7.49.32l21.28-9.87,20.68-9.6c3.23-1.5,4.41-3.38,3.27-5.18a2.51,2.51,0,0,0-.27-.37l-.08-.08a1.52,1.52,0,0,0-.26-.25l-.06-.06c-1.23-1-3.08-.84-5-.52h0l-.53.11a21.37,21.37,0,0,1-2.51.4c-9.1,1-17.92-2.59-22.4-9.28l-18.12-27-23-34.35c2.29-.07,4.54-.73,6-.26,6.42,1.94,40.15,24,47.87,28.71,4.78,3.23,9.82,5.57,13.89,10a42.08,42.08,0,0,1,9.26,11.05,18.39,18.39,0,0,1,2.3,6.45c1.12,6.91-2.85,10.62-.67,13,.58.64,1.74,1.32,4.28,1.28l23-10.68c3.07-1.42,3.54-11.25,2.61-12.9-2.94-5.24-12.67,3.69-14.91-.16-.38-.65-7.11-11.37-8.54-17.47-2.55-12.09-1.3-22.91-1.76-25.18-.69-4.66,1.25-31.06,2-43,.21.34.42.69.61,1l18.1,34.13c.06,2.54.2,5.09.46,7.64a99.44,99.44,0,0,0,32,63.32c1.84,1.66,3.76,3.23,5.72,4.74A51.73,51.73,0,0,1,556.64,678Zm1.21-33.74a95.36,95.36,0,0,1-30.71-60.74c-3-29.89,8.38-59.39,21.21-86.86a103.57,103.57,0,0,1,39.1,8.31l1.59-3.67c-20.71-9-44.51-11-70.73-6-11.59,2.21-23.58,4.49-35.5,4.47-13.12,0-24.68-3.07-33.45-8.79-10.38-6.76-17.39-18-18.3-29.34a72,72,0,0,1,.11-9.61c.14-2.35.27-4.79.24-7.22-.16-11.43-4-23.33-11.39-35.37a155.35,155.35,0,0,0-11.28-15.47c-3.35-4.22-6.82-8.59-9.89-13.3-14.83-22.78-25.14-43.73-31.5-64.05A191.18,191.18,0,0,1,360.6,287c-.72-4.9-1.24-9.85-1.57-14.7a15.7,15.7,0,0,0,9.47,2c5.35-.63,10.25-4.31,15-11.24,6.79-10,9.61-19.39,8.38-28-1.1-7.75-7.15-16.91-16.19-18.62a18.65,18.65,0,0,0-2.26-.29A245.9,245.9,0,0,1,447.33,125c15.25-11.46,61.65-46.36,130.44-47.4,24.48-.38,86,3.73,127.7,49.69,27.16,29.92,38.18,58.6,32.76,85.24-5.1,25-23.62,43-29.17,48-7.89,7-14.13,10.06-20.73,13.3-3.16,1.56-6.43,3.17-9.88,5.24-22.08,13.22-38.59,37.62-49.07,72.54l3.84,1.15c10.18-33.93,26.09-57.57,47.28-70.26,3.31-2,6.51-3.56,9.6-5.08,6.55-3.22,13.31-6.55,21.61-13.9a101.49,101.49,0,0,0,8.9-9,172.75,172.75,0,0,0,54.7-58A168.59,168.59,0,0,0,790.8,160l10.1,60.58c1.05,6.28,2,12.22,1.32,18.34a349.13,349.13,0,0,1-11.41,56.46c-9.44,32.59-21.1,66.22-42.21,91.42-9.16,10.94-19.5,21.19-29.51,31.1-11.73,11.62-27.92,16.88-39.44,19.25-6.6,1.36-11.84,1.53-16.49.55a30,30,0,0,1-18.84-13.87,39.07,39.07,0,0,1-5.07-23.49A45.82,45.82,0,0,1,643,385.74l-3.66-1.63a49.64,49.64,0,0,0-4.1,15.87,43.13,43.13,0,0,0,5.62,25.92,35.75,35.75,0,0,0,7.89,9.06c-13.88,22.37-39.28,37.75-65.54,39.44l.25,4a86.5,86.5,0,0,0,34.68-10c50.83,24.89,87.92,77.06,94.6,133.27l.39,3.29,0,.22h.05v.06l0,0c8.36.81,15.13,7.32,15.43,14.89.33,8.5-8,14.26-13.67,16.06l-.88.24c0-.1,0-.2,0-.29l-.43-16.24-4,.11.43,16.23a29.17,29.17,0,0,1-.33,6.76,8.33,8.33,0,0,1-2.82,5,4.28,4.28,0,0,1-4.57.53l-.71-.42-.08,0c.06-.27.12-.54.16-.81,1.31-8.06-1-16.11-3.32-23l-3.8,1.25c2.15,6.47,4.33,14,3.17,21.14-1,6.26-5.57,13.1-12.31,14l-.27,0-.26.11a11.75,11.75,0,0,1-14.23-4.53c1.21-.75,2.36-1.44,3.46-2.08,2.78-1.62,10.14-5.9,10.15-12.28,0-4.39-3.56-8.65-10.31-12.39a6.77,6.77,0,0,0-.62-4.6,5.88,5.88,0,0,0-4.73-3,4.87,4.87,0,0,0-4.39,1.83l3.17,2.43a1.07,1.07,0,0,1,.9-.28,2,2,0,0,1,1.53.89c.68,1.27.07,3.07-.89,4.2a16,16,0,0,1-5.06,3.4l-9,4.52a20.75,20.75,0,0,0-2.5-4.71,17.41,17.41,0,0,1-2.19-4.09c-1-3.09.22-6.83,3.58-11.44.41-.56.83-1.13,1.26-1.69,2.6-3.46,5.28-7,6-11.55,1-6.88-3.14-13.1-6.86-17.74a124.15,124.15,0,0,0-58-40L595,551.5a120.07,120.07,0,0,1,56.14,38.7c3.21,4,6.81,9.3,6,14.66-.52,3.5-2.79,6.52-5.19,9.73l-1.3,1.74c-4.15,5.69-5.51,10.58-4.17,15a20.56,20.56,0,0,0,2.67,5.09c1.32,2,2.47,3.79,2.31,5.65-.2,2.28-2.41,4.18-4.66,5.94-4.45,3.48-8.85,7-13.26,10.44-4.25,3.35-8.49,6.71-12.77,10.05A95.4,95.4,0,0,1,557.85,644.22Zm162.33,13.93a15.66,15.66,0,0,1-28.93,4.77,20.61,20.61,0,0,0,9.13-10.74c.2,0,.41,0,.62,0a7.52,7.52,0,0,0,3.15.67,8.78,8.78,0,0,0,5.24-1.79,12.31,12.31,0,0,0,4.31-7.32c.1-.46.17-.93.24-1.4A16.26,16.26,0,0,1,720.18,658.15Zm-155.26,3.49a56.75,56.75,0,0,0,.17-6.66,99.83,99.83,0,0,0,50.76,17.34l-26,20.32ZM571.6,726c-12,9.19-23.39,17.86-28.17,22.5l-1,1a60.44,60.44,0,0,1-8.72,7.44c-1.16.8-2.09,1.39-3,2a31.85,31.85,0,0,0-5.12,3.78c-3,2.76-8.11,7.39-6.83,11.54.92,3,4.07,3.37,7.11,3.76a19.76,19.76,0,0,1,7.71,2.12c7.88,4.59,10.18,18.75,8.35,29.74-2.14,12.83-10.75,21.75-19.74,29.47-18.69,16.07-42.32,25.34-65.18,34.3-16.4,6.42-33.35,13.07-48.65,22.22A160.89,160.89,0,0,0,385.94,912l2.48-4a75.7,75.7,0,0,0,6-6.93c3.76-4.68,7.31-9.1,12.15-11.08a290.29,290.29,0,0,0,96.11-64.61c6.59-6.71,13.54-14.76,12.68-25.52a15.08,15.08,0,0,0-8-12.39c-7.72-3.85-14.84,1-19.55,4.18l-106.06,72,94.58-84.63c6.39-5.71,13.3-13.4,10-22.26a14.55,14.55,0,0,0-11.25-9.08c-9.7-1.7-17.71,3.38-25.09,8.73-15.75,11.44-30.77,24.27-45.28,36.68l-36.93,31.56c6-8,11.62-16.43,17.16-24.71l5-7.47c16.52-24.47,35.48-48.58,62.07-59.21,13-5.19,25.65-5.85,35.7-1.86,11.84,4.7,19.55,16.54,17.94,27.55a2,2,0,0,0,3.21,1.86l113.26-88.4h0l.54-.42c4.47-3.49,8.9-7,13.33-10.49s8.8-7,13.24-10.43c2.6-2,5.38-4.46,6.05-7.88L665.76,638a19.12,19.12,0,0,0,6.31-4.39l.33-.41c5.14,2.9,8,6,8,8.72,0,4.09-6.14,7.66-8.16,8.83-18.1,10.53-49.73,35.47-83.21,61.87C583.74,716.74,577.57,721.45,571.6,726Zm83.25,28.7c-.19,2.23-1.26,16.64-2,26.16l0,.29c-.9,12.32-1.14,15.63-3.68,19.32-4.2,6.1-12,10-18.87,9.58-8.59-.58-16-5.56-20.65-9.64l-.27-.24c-2.14-1.87-4.79-4.19-8.21-4.2h0a10.63,10.63,0,0,0-3.66.7c-2.3.8-4.72,1.47-7.06,2.11l-3.71,1.05c-2.07.61-8.39,2.47-14.85.37a14.14,14.14,0,0,1-7-4.3c-2.77-3.33-3.35-8.74-1.43-13.47a17.72,17.72,0,0,1,24.53-9.1c.85.43,1.67.94,2.54,1.48a25.5,25.5,0,0,0,5,2.57c3.24,1.11,7.53.83,9.83-2.31a8.25,8.25,0,0,0,.33-8.42,21.86,21.86,0,0,0-3.57-4.92l-.74-.84-.65-.74A30.84,30.84,0,0,1,594,749.27a143.23,143.23,0,0,1-6.79-30.21l4.25-3.32q4.88-3.86,9.69-7.64a128,128,0,0,0,44.15,16.53c6.1,1.06,13.9,1.86,20.76-1C659.47,734,655.7,744.42,654.85,754.7Zm64.23,32.21A19.45,19.45,0,0,1,717,789c-1.74,1.61-3.72,3.44-4.27,6a2,2,0,0,0,3,2.11c2.78-1.8,7-1.23,9.61,1.3a11.32,11.32,0,0,1,2.8,10.3,10.34,10.34,0,0,1-3.41,6,6.69,6.69,0,0,1-6,1.33c-2.17-.69-3.83-2.71-5.16-4.6-.26-.36-.51-.73-.76-1.09a22.57,22.57,0,0,0-5-5.72c-2.67-2-7-2.94-10.14-.5l2.45,3.16c1.44-1.11,3.82-.53,5.33.57a19.16,19.16,0,0,1,4.07,4.76l.79,1.13a19.65,19.65,0,0,0,4.09,4.44,7.94,7.94,0,0,1,2,6.15c-.51,3.19-3.23,4.87-4.26,5.5-3.73,2.29-8,1.4-9.93.77a14.58,14.58,0,0,0-.76-4.66,35.31,35.31,0,0,0-20.59-22.18l-1.47,3.73a31.68,31.68,0,0,1,18.24,19.64,7.94,7.94,0,0,1,.37,4.69,6.74,6.74,0,0,1-3,3.16,18.9,18.9,0,0,1-12.3,2.6A22.92,22.92,0,0,1,671,832.26a25.26,25.26,0,0,1-7.5-10.83,53.86,53.86,0,0,1-1.84-7.28l-1.3-6.41c-.44-2.19-.91-4.38-1.38-6.57-.92-4.27-1.87-8.69-2.6-13h0c.16-1.93.33-4.13.51-6.7l0-.29c.67-9.24,1.76-23.93,1.94-26.12,1.09-13,7.18-26.28,18.12-39.55l2-2.09c.56-.6,1.13-1.2,1.7-1.79a112.89,112.89,0,0,1,35.52-24.76c7.66-3.37,18.37-6.3,25.82-1.12,3.52,2.46,6.08,6.64,7.2,11.79s.73,10.36.25,14.93A147.05,147.05,0,0,1,719.08,786.91Zm58.17-58.72c11.43,4.31,23.35,3.72,31.89-1.58,6.54-4.05,11-10.62,14.68-16.45,3.54-5.62,7.09-11.74,9.1-18.4,2.27-7.53,2.52-15.42,2.6-23.52.12-13.45-.15-27.1-.79-40.57a2,2,0,0,0-3.74-.88l-22.45,40,.89-28.67c.26-8.49,0-16.86-.18-24.94-.2-7.48-.41-15.21-.23-23,.17-7.42.35-15,0-22.63a389,389,0,0,1,58.55,71.54,244.15,244.15,0,0,0-22.33-11.13,2,2,0,0,0-2.75,2.29c6,26,4.72,53.63-3.62,77.77-5.17,14.95-12,26.16-20.78,34.26a57.33,57.33,0,0,1-72.37,4.28,148.92,148.92,0,0,0,7.63-33.11C760.1,718.77,768.17,724.77,777.25,728.19Zm-24.58-79.57c7.19,8.92,11.19,19.1,11.25,28.67.06,9.3-3.85,18.16-10.18,23.65a34.81,34.81,0,0,0-.64-4.28c-1.34-6.14-4.47-11.19-8.83-14.22-7.1-4.94-17.38-4.69-29.71.74a117.19,117.19,0,0,0-36.79,25.64c-.58.6-1.15,1.21-1.73,1.82-3.42,3.62-6.66,7-10.81,9-6.05,2.84-13.46,2.06-19.24,1.06a124,124,0,0,1-41.47-15.24c24.54-19.3,47.15-36.81,62.85-47a15.78,15.78,0,0,0,13.33,7.25,14.47,14.47,0,0,0,5.64-1.11c.39-.06.76-.15,1.13-.24A20.47,20.47,0,0,0,705,674.76q.74,0,1.47-.06a19.63,19.63,0,0,0,10.53-35c4.51-1.62,10.12-5.24,13.27-10.51C737.43,634,746,640.36,752.67,648.62Zm211-224.11c-.71,4.1-3.62,6.82-5.36,8.45C946.4,444,940.44,449.58,935,452.63c-11.85,6.66-22.3,15.66-32.41,24.36-5.32,4.58-10.82,9.32-16.44,13.63-18.55,14.25-28.4,21.85-34,26.2-7.07,5.46-7.49,5.78-10.17,7.69-3.21,2.29-6.12,4.33-8.83,6.23-9,6.34-15.58,10.92-23.21,17.76l-.22.19c-4.39,3.94-8.92,8-15.48,13-2.23,1.69-3.59,2.66-4.91,3.6-1.55,1.1-3,2.14-5.66,4.21-4.16,3.25-6.13,5.06-8,6.81a85.16,85.16,0,0,1-6.86,5.79c-3.88,3-6.12,4.45-8.09,5.76a76.8,76.8,0,0,0-8,6c-1,.84-1.84,1.57-2.66,2.28-1.61,1.4-3.14,2.73-5.77,4.78-1.46,1.14-2.59,2-3.6,2.73-1.48,1.1-2.76,2.06-4.48,3.51-1.94,1.64-3.8,3.38-5.56,5.19a21.43,21.43,0,0,0-13.22-10.45c38.28-30.62,77-61.91,114.47-92.18,37.92-30.64,77.14-62.33,115.88-93.31,3.34-2.66,6.89-5.22,10.46-4.68a5.19,5.19,0,0,1,3.14,2.28A15,15,0,0,1,963.63,424.51Z"/></svg>