<svg id="Layer_1" data-name="Layer 1" xmlns="http://www.w3.org/2000/svg" xmlns:xlink="http://www.w3.org/1999/xlink" viewBox="0 0 3552.31 1920"><defs><style>.cls-1{fill:#fff;}.cls-2{fill:none;stroke:#262626;stroke-miterlimit:10;stroke-width:2px;}.cls-3{fill:#afe1fa;}.cls-4{mask:url(#mask);}.cls-5{opacity:0.8;}.cls-6{filter:url(#luminosity-invert);}</style><filter id="luminosity-invert" filterUnits="userSpaceOnUse" color-interpolation-filters="sRGB"><feColorMatrix values="-1 0 0 0 1 0 -1 0 0 1 0 0 -1 0 1 0 0 0 1 0"/></filter><mask id="mask" x="911.03" y="676" width="1754" height="600" maskUnits="userSpaceOnUse"><g class="cls-6"><image width="1754" height="600" transform="translate(911.03 676)" xlink:href="End1.png"/></g></mask></defs><polygon class="cls-1" points="2409.01 1273.28 2013.44 1273.28 1538.87 1273.28 1143.29 1273.28 546.79 1273.28 -0.01 1273.28 -0.01 646.72 546.79 646.72 1143.29 646.72 1538.87 646.72 2013.44 646.72 2409.01 646.72 3005.51 646.72 3552.3 646.72 3552.3 1273.28 3005.51 1273.28 2409.01 1273.28"/><path class="cls-2" d="M1994.91,960c0,120.82-97.94,218.75-218.75,218.75S1557.41,1080.82,1557.41,960s97.93-218.76,218.75-218.76S1994.91,839.18,1994.91,960Z"/><path class="cls-2" d="M1994.91,960c0,120.82-97.94,218.75-218.75,218.75S1557.41,1080.82,1557.41,960s97.93-218.76,218.75-218.76S1994.91,839.18,1994.91,960Z"/><path class="cls-2" d="M1143.29,1273.28a707.5,707.5,0,0,1,0-626.56"/><path class="cls-2" d="M1538.87,1273.28c-94.6-71.74-155.7-185.37-155.7-313.28s61.1-241.52,155.7-313.28"/><path class="cls-2" d="M1994.91,960c0,120.82-97.94,218.75-218.75,218.75S1557.41,1080.82,1557.41,960s97.93-218.76,218.75-218.76S1994.91,839.18,1994.91,960Z"/><path class="cls-2" d="M2409,646.72a707.5,707.5,0,0,1,0,626.56"/><path class="cls-2" d="M2013.45,1273.28c94.6-71.74,155.7-185.37,155.7-313.28s-61.1-241.52-155.7-313.28"/><path class="cls-2" d="M546.8,1273.28a1278.08,1278.08,0,0,1,0-626.56"/><path class="cls-2" d="M1538.87,1273.28c-94.6-71.74-155.7-185.37-155.7-313.28s61.1-241.52,155.7-313.28"/><path class="cls-2" d="M1994.91,960c0,120.82-97.94,218.75-218.75,218.75S1557.41,1080.82,1557.41,960s97.93-218.76,218.75-218.76S1994.91,839.18,1994.91,960Z"/><path class="cls-2" d="M3005.51,646.72a1278.08,1278.08,0,0,1,0,626.56"/><path class="cls-2" d="M2013.45,1273.28c94.6-71.74,155.7-185.37,155.7-313.28s-61.1-241.52-155.7-313.28"/><circle class="cls-3" cx="993.07" cy="757.75" r="79.4"/><circle class="cls-3" cx="2583.49" cy="938.79" r="79.4"/><path class="cls-3" d="M1424.67,1258.15a79.29,79.29,0,0,1-1.44,15.13H1267.32a79.4,79.4,0,1,1,157.35-15.13Z"/><g class="cls-4"><g class="cls-5"><circle cx="993.07" cy="757.75" r="79.4"/><circle cx="2583.49" cy="938.79" r="79.4"/><path d="M1424.67,1258.15a79.29,79.29,0,0,1-1.44,15.13H1267.32a79.4,79.4,0,1,1,157.35-15.13Z"/></g></g></svg>