<svg xmlns="http://www.w3.org/2000/svg" viewBox="0 0 841.89 595.28"><defs><style>.cls-1{fill:#0c0c0c;}</style></defs><g id="Layer_2" data-name="Layer 2"><path class="cls-1" d="M248.58,183.87m42.11-.58a9.13,9.13,0,0,1,7.15,3.48c5.67,7.21,8.53,14.65,7.74,20.12a17.64,17.64,0,0,1-1.38,5c-2.48,4.87-7,5.7-7.18,8.9,0,.88.22,2.16,1.75,3.78,6.36,13.83,13.52,28.28,21.59,43.17,10.29,19,20.78,36.33,31.09,52.07,11.21-13,51.43-91.29,51.43-95.24,0-10.26-17.1-6-21.69-13.66-.79-1.32-.9-2.45-1.12-4.52-1.19-10.72,6.84-22,14.32-23,.17,0,.49-.06.92-.08h.88c.58,0,1.15,0,1.72,0h62.26c3.34.2,6.28,3,6.28,3a9.25,9.25,0,0,1,2.18,6.29c0,1.19-61.88,89.31-67.68,103.54-1.93,5.53-19.34,28.84-29.78,59.27-5,15.81-3.87,48.61-3.87,50.58,0,11.86,36.36.79,36.36,17,0,5.14-15.09,29.25-24.75,29.25H307.63c-6.06-2.81-7.8-5.81-8.24-8.05-1.63-8.28,13.07-12.9,20.41-30.92a49.1,49.1,0,0,0,3.8-17.94c0-22.52-5-32.4-5.8-35.56-3.09-14.23-11.21-24.5-17.4-36.36-10.44-17.78-51.82-93.65-62.27-102.74-4.25-4-20.1-2-20.1-13.83,0-7.91.71-23.71,11.92-23.71Z"/><path class="cls-1" d="M280.66,441.45a4.16,4.16,0,0,0-.24-.89,1.05,1.05,0,0,0-.06-.21c-1.41-3.73-5.86-5.51-10.62-6.83l0,0-1.37-.33a54.62,54.62,0,0,1-6.31-1.8c-22-7.61-36.21-25.6-36.21-45.83V207.23C225.83,187,240.05,169,262,161.4a56.76,56.76,0,0,1,6.31-1.8,35.47,35.47,0,0,0,5.36-1.58c4.85-1.91,7.11-4.5,7.11-8.14,0-5.71-5.54-9-15.21-9l-61,0-61,0c-9.67,0-15.2,3.29-15.2,9,0,3.64,2.25,6.23,7.1,8.14a35.47,35.47,0,0,0,5.36,1.58,56.76,56.76,0,0,1,6.31,1.8c22,7.62,36.21,25.61,36.21,45.83V385.6c0,20.23-14.22,38.22-36.21,45.83a54.62,54.62,0,0,1-6.31,1.8l-1.37.33,0,0c-4.75,1.32-9.21,3.1-10.62,6.83a1.05,1.05,0,0,0-.06.21,4.16,4.16,0,0,0-.24.89c0,.1,0,.21-.06.3a7.79,7.79,0,0,0-.09,1.2c0,5.72,5.53,9,15.2,9h122c9.67,0,15.21-3.28,15.21-9a7.77,7.77,0,0,0-.1-1.2A1.77,1.77,0,0,0,280.66,441.45Z"/><path class="cls-1" d="M558.11,441.45a4.15,4.15,0,0,0-.23-.89c0-.08,0-.15-.07-.21-1.4-3.73-5.86-5.51-10.62-6.83v0l-1.38-.33a54,54,0,0,1-6.3-1.8c-22-7.61-36.22-25.6-36.22-45.83V207.23c0-20.22,14.22-38.21,36.22-45.83a56.13,56.13,0,0,1,6.3-1.8,35.62,35.62,0,0,0,5.37-1.58c4.84-1.91,7.1-4.5,7.1-8.14,0-5.71-5.54-9-15.21-9l-61,0-61,0c-9.66,0-15.2,3.29-15.2,9,0,3.64,2.25,6.23,7.1,8.14a35.27,35.27,0,0,0,5.37,1.58,57.36,57.36,0,0,1,6.3,1.8c22,7.62,36.22,25.61,36.22,45.83V385.6c0,20.23-14.22,38.22-36.22,45.83a55.17,55.17,0,0,1-6.3,1.8l-1.38.33,0,0c-4.75,1.32-9.21,3.1-10.62,6.83,0,.06,0,.13-.06.21a3.63,3.63,0,0,0-.23.89,1.84,1.84,0,0,0-.07.3,7.79,7.79,0,0,0-.09,1.2c0,5.72,5.54,9,15.2,9h122c9.67,0,15.21-3.28,15.21-9a6.7,6.7,0,0,0-.1-1.2A1.77,1.77,0,0,0,558.11,441.45Z"/><path class="cls-1" d="M650.45,149.66H634.6v42.9H623v-42.9H607.11V139.8h43.34Z"/><path class="cls-1" d="M656.53,139.8h16.52L685.35,176l12-36.24H713.5v52.76H702.61V155.07l-13,37.49h-9l-13.11-37.12v37.12h-11Z"/></g></svg>