<svg id="OBJECTS" xmlns="http://www.w3.org/2000/svg" viewBox="0 0 2000 2000"><defs><style>.cls-1{fill:#0078c9;}.cls-2{fill:none;stroke:#000;stroke-miterlimit:10;stroke-width:7px;}</style></defs><path class="cls-1" d="M1744.16,560q-144,198.85-287.05,398.43-24.37,18-49.87,34.41c-10.6,6.8-21.54,15.22-33.84,18.6-8.31,2.29-17.08,2.71-24-3.17-4.1-3.51-7.45-8.94-7.2-14.32A81.47,81.47,0,0,0,1346,985c1.57-4.42-5-8.3-8-4.66-.27.32-.49.65-.74,1h0l-.09.15a23.57,23.57,0,0,0-2.9,5,79.93,79.93,0,0,1-7.66,10.25,198.15,198.15,0,0,0,15.27-29.53c2.81-6.79-7.1-11.3-11.7-6.81a96.4,96.4,0,0,0-25.43,42.32,179.91,179.91,0,0,1-47.57,41.86c6.13-20.32,12.25-40.64,18.65-60.87,2.34-7.39-9-12.32-12.62-5.32a181,181,0,0,1-37.87,50.12,161.39,161.39,0,0,1,7-29,230.45,230.45,0,0,0,13-28.66c2.62-7-8.37-11.39-12-5a195.63,195.63,0,0,0-13.35,28.7c-17.29,30.91-42.09,56.31-72,75.91A187.75,187.75,0,0,1,1180.16,975c3.41-5.08-4.71-9.7-8.16-4.77a211.76,211.76,0,0,0-37.68,112.45c-.23,5.3,5.77,8,10,5.77,25.82-13.46,48.14-32.7,66.09-55.46-.55,4.12-1,8.27-1.26,12.46-.46,7,7.89,8.57,12.33,5.12a191.47,191.47,0,0,0,26.65-25.24q-5.23,16.23-10.46,32.47c-2.14,6.69,5.43,10.9,10.88,8.37a181,181,0,0,0,55.57-40.27,7.66,7.66,0,0,0,7.14.26,72.65,72.65,0,0,0,23.46-20.09,31.46,31.46,0,0,0,9.9,12.33c17.5,13.12,40.27,2.83,56.77-6.75,10.7-6.22,21.22-12.84,31.59-19.74L1342.43,1118q-33.84,7.55-67.66,15.22a348.19,348.19,0,0,0-61.61,9.53,241.22,241.22,0,0,0-39.25,13.63q-64.38,14.94-128.67,30.17-74.55,17.64-149,35.59c37.76-28.37,76.12-56,111.69-87.08,37-32.33,70.45-68.71,95.43-111.26a6.75,6.75,0,0,0-5.78-10.08l-2.73,0a276.49,276.49,0,0,0,29.28-34.32c31.57-44.23,45.06-104.67,21.85-155.73-24.56-54-83.76-69.75-138.55-67-30.89,1.56-61.32,7.77-91.52,14.08Q862,782.07,808.66,796.22a2076.14,2076.14,0,0,0-427.33,166c-54,28.22-123.81,62.76-134.73,129.68-.76,4.61,2.9,9.9,8.15,8.16,131.58-43.75,264.18-85.3,394.07-133.85,2.71-1,1.67-5.23-1.22-4.41-129.6,36.72-257.33,80.33-385.46,121.92,15.27-51,68.82-79.65,113.21-103.27A2053.6,2053.6,0,0,1,947.56,777.69c53.33-10.3,121.69-19.17,164.87,22,41.76,39.84,36.83,107.78,10,154.36-13.18,22.9-30.61,42.47-50.17,60-106.61,2.43-212.09,18.4-314,50.68-101.45,32.14-205.48,77.71-288.61,145.3-42.42,34.5-79.27,78-98.77,129.57-2,5.34,3.16,11.24,8.47,11.12q14.34-.35,28.56-1.93c-14.57,5.16-29,10.63-43.31,16.54-42.08,17.4-84.1,37.65-119.64,66.49-5.95,4.84,1.68,14.12,8.05,10.43,36.24-21,72.31-41.62,111-57.88s78.86-29.25,119.26-40.87c86.06-24.76,173.42-45.3,260.3-66.94q39.4-9.81,78.85-19.47c-21,17.34-41.11,35.63-59.54,55.66A394.57,394.57,0,0,0,718.73,1370c-6.13,9.79-12.39,21.06-9.23,33,2.8,10.63,12,17.37,21.58,21.48,55.15,23.49,123,8.36,167.95-28.86,5.64-4.67-1.78-14.35-7.87-10.2-41.95,28.65-99.22,40.52-148,23.25-5.7-2-14.15-5-15.06-12.13-.77-5.94,5.43-13.75,8.34-18.38q9-14.31,19.34-27.69a453.58,453.58,0,0,1,44.89-49.38c20.07-19.29,41.38-37.07,63.22-54.2Q998,1214,1132.33,1181.85a147.11,147.11,0,0,0-26.48,28.12c-31.84,44.62-32.3,101.75-30,154.3.87,20.45,1.36,46.1,20.45,58.79,19.78,13.15,42.39,2.82,58.39-11.17,21.74-19,37-46.65,53.57-70q28.85-40.62,57.68-81.25,40.54-57.27,81.07-114.56c67.42,3.12,134.9,8.61,197-21.48,6.24-3,1.82-13.84-4.77-11.33-59.12,22.49-120.77,20.38-182.46,19l3.26-4.62q125.64-29.81,251.09-60.43c3.9-1,2.23-6.76-1.65-6q-119.28,23.91-238.05,50.33l108.86-153.86q17.85-13.89,35-28.43c72-61.15,134.64-134.53,180.75-217.16a695.11,695.11,0,0,0,60.92-146.86C1759.16,557.31,1748.57,553.88,1744.16,560ZM594.68,1147.4a1077.61,1077.61,0,0,1,313.05-105.1,1035.71,1035.71,0,0,1,148.94-15c-23.22,18.67-48.5,35.11-72.91,51q-83.29,54.3-171.62,100.29a2018.13,2018.13,0,0,1-204.93,92.64c-68.22,26.35-140.71,56.39-214.57,61.29C430.47,1245.77,512.89,1189.87,594.68,1147.4Zm172.24,106.11C707.73,1268,648.39,1282.07,589.28,1297l5-1.87a2013.42,2013.42,0,0,0,192.67-84.72,2038.44,2038.44,0,0,0,189-108c35.67-23,72.94-46.62,105-75.4h4.51c-53.76,81-137.56,134.5-214.11,191.9q-9,6.77-18,13.66Q810.11,1243,766.92,1253.51Zm545-93q-53.6,74.57-107.1,149.18c-17.85,24.93-34.46,51.92-54.38,75.23-13.33,15.61-41.89,37.2-52.31,6.86-4-11.48-4.24-24.42-5.34-36.4-1.23-13.43-2.19-26.86-2.2-40.35,0-26.78,3-54.25,14.09-78.89,12.31-27.32,33.34-47.4,58.32-61.62q62.16-14.85,124.37-29.58c11.81-.28,23.68-.13,35.57.23Q1317.43,1152.8,1311.93,1160.48Zm197.21-243.6q110.77-156.54,221.26-313.29C1687.59,725.64,1607.05,832.55,1509.14,916.88Z"/><line class="cls-2" x1="242.82" y1="1390.11" x2="1619.77" y2="1390.11"/></svg>