<svg id="Layer_1" data-name="Layer 1" xmlns="http://www.w3.org/2000/svg" viewBox="0 0 1920 1440"><defs><style>.cls-1{fill:#242122;}.cls-2{fill:none;stroke:#242122;stroke-miterlimit:10;stroke-width:7px;}</style></defs><path class="cls-1" d="M1289.26,617.92l-14.12,5.61-.39-1.06,3.45-2.59a30.31,30.31,0,0,0-11.43,1.72c-6.06,2.31-11.88,5.28-17.87,7.79-23.45,9.82-46.24,21-67.85,34.36q-36.27,22.47-72.14,45.6c-14.42,9.36-28.36,19.45-42.46,29.28-2.16,1.51-4.06,3.4-5.66,4.76,1-4,1.82-7.73,3-11.38,2.58-8.36,5.39-16.64,8-25,1.31-4.26,1.16-9.51,3.69-12.71,4.58-5.8,4.59-12.47,6.11-18.9.11-.47.5-1.29.65-1.27,3.65.54,2.11-2.36,2.48-3.84.34-1.32,0-2.87.46-4.11,1.44-3.74,3.42-7.29,4.67-11.09,2-6,2.51-12.63,5.41-18.05,5.76-10.75,6.68-23.3,14.06-33.53,3.61-5,4.31-12.09,6.42-18.21,1.22-3.51,2.74-6.91,3.92-10.43.69-2.06.66-4.39,1.51-6.35,1.5-3.46,3.82-6.58,5.09-10.1,3-8.18,5.27-16.6,8.25-24.77,4.31-11.78,9-23.44,13.55-35.12.81-2,2.48-3.74,3.14-5.8,2-6.18,3.23-12.6,5.49-18.66,5.05-13.58,9.83-27.34,16.11-40.35,3.65-7.59,4-16.68,10.34-23a2.14,2.14,0,0,0,.32-.89c1.15-3.86,1.7-8,3.55-11.53,5-9.46,8-19.86,13.84-29,1.75-2.73,2.19-6.31,3.22-9.5l-1.54-.48q-7.25,14.46-14.48,28.92l-1.12-.49a33.83,33.83,0,0,1,1.43-4.37c5.78-11.87,12-23.55,17.36-35.59,6-13.35,11.14-27.07,16.91-40.52,3.17-7.38,6.53-14.73,10.41-21.76,4-7.32,9.09-14.08,13.22-21.36,3.87-6.81,7-14,10.65-21,3.3-6.28,6.85-12.42,10.3-18.63a82.48,82.48,0,0,0-7.77,9c-11.08,14-23.28,27.21-33.06,42-19.81,30-40.46,59.54-58.43,90.78-5.76,10-12.94,19.21-19.14,29-7.3,11.53-14.16,23.33-21.39,34.91-8.82,14.15-17.84,28.17-26.75,42.27-7.46,11.81-14.86,23.67-22.3,35.49-1.72,2.72-3.45,5.43-5.25,8.09-4,5.93-8.16,11.75-12,17.76-1.21,1.89-5.78,8.08-7.81,9.45-.5.34-1.16.82-1.27,1.34-.51,2.33-.48,3.9-3.23,6-5.08,3.92-9.09,10-11.81,16a67.83,67.83,0,0,1-9.21,14.73c-7.59,9.4-14.46,19.39-21.28,29.38-18.31,26.84-36.4,53.83-54.68,80.69-7.49,11-15.25,21.83-23.24,33.23-1.36-2.42-2.4-4.28-3.45-6.13a9.67,9.67,0,0,0,2.3-5.16c.46-2.4.69-4.84,1.23-7.21q3.06-13.45,6.26-26.86c1-4.28,2-8.57,3.24-12.78,2.6-8.87,5.53-17.64,8-26.55,1.95-7,3.17-14.24,5.19-21.24s4.73-13.56,6.86-20.42c1.51-4.87,2.36-10,3.87-14.83,4.43-14.29,9.06-28.53,13.58-42.79,3.14-9.9,5.6-20.07,9.51-29.65,6.41-15.69,10.94-32,16.84-47.88s10.24-32.3,15.61-48.38c3.37-10.1,7.41-20,11.11-30,2.92-7.92,5.75-15.89,8.69-23.81a21,21,0,0,1,1.85-3.25c1.32-2.18,3-4.21,3.91-6.54,4.24-10.46,8.3-21,12.38-31.53,2.14-5.52,4.11-11.1,6.28-16.61.82-2.07,1.3-3.71-1.59-4.34-6.24-1.36-10.56-5.53-15-9.79a26,26,0,0,0-9.45-5.7c-3.42-1.16-7.3-.95-11.31-1.37v2c-1.89.43-4,.29-4.44,1.09-8.43,14.2-16.4,28.67-25,42.77-17,28-34.6,55.73-51.57,83.8-14.22,23.51-27.86,47.37-41.83,71q-25.5,43.17-51.12,86.26c-5.14,8.68-10.35,17.31-16.3,27.25-.26-3.12-.73-4.82-.47-6.4q3.31-19.87,6.85-39.72c1.73-9.74,3.55-19.46,5.32-29.19-1.54,5.14-3.07,10.28-4.57,15.29-2.06-2.21,1.5-20.24,5.22-26.9-.27,4.26-.51,8-.75,11.76,1.22-5.87,2.35-11.76,3.66-17.61,3.38-15.12,6.91-30.2,10.25-45.33,5.79-26.24,11.47-52.5,17.26-78.74a10.65,10.65,0,0,1,1.69-2.84c-4.56-2.48-10.3-4-13.4-7.68-4.44-5.32-7.53-7.61-14.35-3.6-3.73,2.19-9.22,1.4-13.92,1.95-1.23,1.64-2.9,3.71-4.37,5.91a12.94,12.94,0,0,0-1.1,3.1c-1.17,3.48-1.94,7.16-3.56,10.41-8.79,17.67-18.06,35.11-26.65,52.87-10,20.64-19.58,41.48-29.09,62.34-9,19.78-17.71,39.71-26.56,59.57-8,18-16.18,35.9-24,54-7.26,16.78-14,33.77-21.26,50.56-9,20.93-18.31,41.73-27.36,62.63-6.36,14.68-12.56,29.42-18.71,44.19-9.12,21.89-18.48,43.69-27.09,65.78a472.82,472.82,0,0,0-21.46,70.23c-1,4.62-2.84,9.06-4.29,13.58a8.17,8.17,0,0,0,2.19-3.06c4.73-8.19,10-16.12,14.15-24.61,7.18-14.72,13.6-29.81,20.47-44.68,1.58-3.44,3.93-6.54,5.43-10s1.81-7.35,3.52-10.59c3.7-7.06,8-13.81,12-20.72q8.65-15,17.19-30c3.66-6.47,7.13-13,10.74-19.54.24-.42,1-.57,1.75-1,.11,1.51.18,2.61.33,4.8,3.22-4.93,6-8.81,8.38-13,2.76-4.92,5.19-10,7.6-15.13q5.73-12.09,11.24-24.28c2.83-6.26,5.45-12.62,8.27-18.89,5.5-12.22,11.09-24.4,16.61-36.61,2.27-5,4.39-10.15,6.68-15.18,3.14-6.9,6.4-13.75,9.58-20.63,4.21-9.15,8.25-18.38,12.63-27.45,4.66-9.65,9.76-19.08,14.42-28.73,3.86-8,7.22-16.21,11.06-24.21,2.47-5.12,5.7-9.89,8-15.06,3-6.65,5.55-13.54,8.25-20.34.27-.68.21-1.5.5-2.17.65-1.52,1.42-3,2.14-4.47l1.17.6c-1.63,6.78-3.57,13.51-4.83,20.36-3.36,18.26-6.48,36.55-9.61,54.85-2.65,15.51-5.38,31-7.72,46.56-2.73,18.24-5.16,36.54-7.51,54.84-.58,4.52-2.12,10.31-.07,13.46,3.16,4.83,8.66,8.59,13.9,11.46,4,2.19,9.14,2.31,14.28,3.47,2.77-3.55,6.64-7.41,9.16-12,3.77-6.87,6.38-14.38,9.88-21.42,4-8,8.43-15.79,12.63-23.7,3.07-5.79,5.82-11.77,9.14-17.41,4.26-7.23,9.17-14.07,13.39-21.31,9.42-16.16,18.56-32.47,27.86-48.7C903.54,545,911,532.58,918,519.82c6.78-12.37,15.35-23.86,19.16-37.75.13-.45.43-1.23.66-1.23,5.46-.08,5.89-5.17,7.8-8.33,4.51-7.48,8.29-15.4,12.52-23.06.87-1.59,2.38-2.83,3.54-4.16,1.5-2.29,2.48-5.44,4.55-6.53,2.28-1.19,3.51-1.58,2.35-3.93a35.45,35.45,0,0,1-1.21-3.68c2.65,3.22,4,3.27,5.15.53a63.88,63.88,0,0,1,3.1-5.83c-.3,3.58-1.85,6.54-2.92,9.66-7.43,21.65-15,43.27-22.08,65-6.92,21.16-13.63,42.38-20,63.71-6.9,23.18-13.19,46.54-19.92,69.76-9.44,32.55-17.3,65.42-21,99.17-.41,3.77-.75,7.73,0,11.4.84,4.37,3.08,8.45,4.27,12.78.92,3.37,6.46,10.51,9.47,10,3.84-.61,5.59,1.49,7.47,3.68,2.85,3.33,6,2.53,9.56,1.56A42.12,42.12,0,0,0,938.64,762a135.3,135.3,0,0,0,10-11c2.84-3.34,5.45-6.87,8.11-10.36,3.26-4.27,6.6-8.48,9.64-12.9,2.51-3.65,3.93-8.34,7.08-11.17,3.45-3.09,3.65-7.52,6.65-10.85,5.35-5.92,9.25-13.14,13.8-19.79,5.43-7.93,10.93-15.82,16.37-23.74,3.32-4.83,6.63-9.66,9.87-14.53,2.25-3.4,4.47-6.83,6.52-10.35a24.32,24.32,0,0,0,1.55-4.6c.31-.13,1.43-.26,1.9-.88,2.52-3.3,5-6.64,7.26-10.11,6.12-9.36,12.11-18.8,18.18-28.2s12.26-18.57,18.05-28.06c3.33-5.45,8.09-9.94,9.86-16.53.92-3.41,4.21-6.18,7-10a15.25,15.25,0,0,1-.23,3.27q-7.74,20.44-15.56,40.86c-10.37,27.09-21.26,54-31,81.29-9.94,27.91-18.76,56.22-28.06,84.36-1.21,3.65-2.4,7.3-3.44,11-2,7.23-3.89,14.5-5.91,21.73a4.47,4.47,0,0,1-1.54,1.78c-14.06,12-28.19,23.83-42.19,35.87-17.75,15.28-35.36,30.73-53.11,46-8.21,7.08-14.75,15.88-23.65,22.32-4,2.92-6.72,7.58-10.35,11.11-5.24,5.1-11.22,9.51-16.12,14.9q-19.64,21.6-38.57,43.81a555.07,555.07,0,0,0-52.14,72.31c-13.5,22.28-26.2,45-33.15,70.23a223.58,223.58,0,0,0-6.89,37.36,94.11,94.11,0,0,0,1.65,26.87c1.7,8.67,4.9,17.36,12.34,23.17,3.34,2.6,7.44,3.94,9.73,8.16.91,1.67,4.39,2.11,6.79,2.71,1.42.35,3.08-.35,4.57-.13,12.56,1.94,25,.43,37.22-2.06a49.25,49.25,0,0,0,16.18-6.52c11.32-7.19,22.29-15,33.09-22.91,4.7-3.46,8.64-8,12.92-12,.61-.87,2.6-.37,3.35-1.11,5.24-5.21,10.63-10.35,15.21-16.12,9.11-11.48,17.82-23.26,26.5-35.06,10.62-14.43,20.66-29.23,27.86-45.76,1.1-2.53,3.35-4.52,4.69-7s2.19-5.52,3.59-8.11c3-5.52,6.51-10.78,9.23-16.42,2.14-4.46,6.37-8.19,5.52-13.84-.23-1.54-.6-3.05-1.13-5.65,3.14,3.22,4.47,3,5.89-.38,2.82-6.76,6.27-13.25,9.44-19.86.92-1.92,1.81-3.86,2.62-5.83,1.41-3.44,2.6-7,4.15-10.34,2.71-5.92,5.67-11.72,8.43-17.61,1.55-3.3,3.07-6.64,4.34-10.06,1-2.77,1.64-5.68,2.44-8.53.31-1.38,1.77-2.52,2.39-4,1.56-3.76,2.72-7.68,4.08-11.52,4.11-11.62,8.3-23.21,12.33-34.85,1.93-5.58,3.46-11.29,5.39-16.87,1.64-4.72,3.76-9.27,5.36-14,2.13-6.29,3.84-12.72,6-19,2.33-6.91,5-13.71,7.36-20.59,1.63-4.65,2.57-9.58,7.39-12.43a149.91,149.91,0,0,0,14.73-9.53c7.71-5.89,15.12-12.18,22.58-18.38,2.62-2.18,5-4.61,7.54-6.92-9.13.53-14.33,8-22.12,10.81,37.36-25.51,69.59-58,109.46-80,35.43-28.23,73.87-52,112.22-76ZM987.2,848.51c-7.76,21.38-15.09,42.94-23.53,64-10.12,25.3-20.58,50.5-32.06,75.2-11.14,24-23,47.65-36,70.65-13.36,23.67-28.36,46.57-48.6,65.1-14.67,13.44-30.44,25.68-45.94,38.18-6.7,5.4-15,8-23.26,9.51-8.43,1.56-15.91-1.13-18.38-9.66-.89-3.08-.8-6.54-.65-9.81.55-11.65,1.33-23.33,5-34.49,2.32-7.08,5.5-13.88,8.31-20.8,2.08-5.13,3.88-10.4,6.36-15.33,3.35-6.65,7.09-13.11,10.92-19.49,4.17-7,8.29-14,13.06-20.56,4.35-6,7.59-12.58,13.35-17.84s9.14-12.6,13.52-19.09c1.39-2,2.59-4.22,3.87-6.34l0,0h0l0-.05-11.39,12.46-.9-.66,14.44-18.38.49.37-2.64,6.21.05-.06,0,.07c6-7,11.89-14,17.92-20.93,10-11.46,19.6-23.28,30.16-34.18,16.27-16.8,33.21-32.93,49.83-49.38,2.67-2.63,5.23-5.39,7.65-8.25.42-.5-.07-1.77-.07-1.68,4.28-3.2,8.68-6,12.55-9.46,7.84-6.93,15.26-14.35,23.15-21.23,4-3.5,8.64-6.27,13.91-10C987.82,845.29,987.76,847,987.2,848.51ZM1000.92,909l-1.18-.41,6.09-17.84,1.27.43Z"/><line class="cls-2" x1="351.26" y1="967.11" x2="1540.08" y2="967.11"/></svg>